<svg xmlns="http://www.w3.org/2000/svg" width="960" height="480" viewBox="0 0 640 320">
 <defs><linearGradient id="paint" x2="0" y2="1"><stop stop-color="#edf5fa"/><stop offset=".18" stop-color="#a2a7a4"/><stop offset=".74" stop-color="#a2a7a4"/><stop offset="1" stop-color="#18242f"/></linearGradient><linearGradient id="glass" x2=".4" y2="1"><stop stop-color="#52758a"/><stop offset="1" stop-color="#112633"/></linearGradient><radialGradient id="rim"><stop stop-color="#dce3e9"/><stop offset=".8" stop-color="#8798a4"/><stop offset="1" stop-color="#293b49"/></radialGradient><clipPath id="body"><path d="M40 225 L47 183 L135 166 L196 109 Q209 98 233 98 L365 98 Q389 99 404 117 L451 160 L551 175 Q580 181 592 211 L590 234 L42 234 Z"/></clipPath></defs>
 <ellipse cx="320" cy="275" rx="284" ry="10" fill="#112032" opacity=".13"/>
 <path d="M40 225 L47 183 L135 166 L196 109 Q209 98 233 98 L365 98 Q389 99 404 117 L451 160 L551 175 Q580 181 592 211 L590 234 L42 234 Z" fill="url(#paint)" stroke="#263641" stroke-width="2.5" stroke-linejoin="round"/>
 <path d="M155 161 L215 114 L278 114 L278 161 Z M291 114 L367 114 Q380 115 391 130 L420 160 L291 160 Z" fill="url(#glass)" stroke="#c7d5de" stroke-width="3"/>
 <g clip-path="url(#body)"><path d="M28 181 Q280 175 615 190" fill="none" stroke="#eef5fa" stroke-width="2" opacity=".6"/><path d="M33 224 L608 224" stroke="#15242d" stroke-width="9"/><path d="M254 165 L254 218 M400 166 L403 217" stroke="#20323e" opacity=".55"/><rect x="270" y="175" width="24" height="4" rx="2" fill="#d8e3e9"/><rect x="377" y="177" width="24" height="4" rx="2" fill="#d8e3e9"/></g>
 <path d="M99 239 A48 48 0 0 1 195 239 M432 239 A48 48 0 0 1 528 239" fill="#18242e"/>
 <rect x="51" y="184" width="12" height="19" rx="3" fill="#e2474a"/><path d="M542 182 L576 195 L573 204 L543 197 Z" fill="#f4f6d6" stroke="#bdcbd2"/><path d="M554 215 L583 215" stroke="#172731" stroke-width="8"/>
 <circle cx="147" cy="235" r="42" fill="#14212b" stroke="#26333d" stroke-width="3"/><circle cx="147" cy="235" r="32" fill="url(#rim)"/><path d="M147 235 L175.0 235.0" stroke="#eef3f6" stroke-width="4"/><path d="M147 235 L161.0 259.2" stroke="#eef3f6" stroke-width="4"/><path d="M147 235 L133.0 259.2" stroke="#eef3f6" stroke-width="4"/><path d="M147 235 L119.0 235.0" stroke="#eef3f6" stroke-width="4"/><path d="M147 235 L133.0 210.8" stroke="#eef3f6" stroke-width="4"/><path d="M147 235 L161.0 210.8" stroke="#eef3f6" stroke-width="4"/><circle cx="147" cy="235" r="7" fill="#455866"/><circle cx="480" cy="235" r="42" fill="#14212b" stroke="#26333d" stroke-width="3"/><circle cx="480" cy="235" r="32" fill="url(#rim)"/><path d="M480 235 L508.0 235.0" stroke="#eef3f6" stroke-width="4"/><path d="M480 235 L494.0 259.2" stroke="#eef3f6" stroke-width="4"/><path d="M480 235 L466.0 259.2" stroke="#eef3f6" stroke-width="4"/><path d="M480 235 L452.0 235.0" stroke="#eef3f6" stroke-width="4"/><path d="M480 235 L466.0 210.8" stroke="#eef3f6" stroke-width="4"/><path d="M480 235 L494.0 210.8" stroke="#eef3f6" stroke-width="4"/><circle cx="480" cy="235" r="7" fill="#455866"/></svg>